<svg width="60" height="60" viewBox="0 0 60 60" fill="none" xmlns="http://www.w3.org/2000/svg">
<rect width="60" height="60" rx="16" fill="white" fill-opacity="0.6"/>
<path fill-rule="evenodd" clip-rule="evenodd" d="M17 17C16.7348 17 16.4804 17.1054 16.2929 17.2929C16.1054 17.4804 16 17.7348 16 18C16 18.2652 16.1054 18.5196 16.2929 18.7071C16.4804 18.8946 16.7348 19 17 19H18V33C18 34.0609 18.4214 35.0783 19.1716 35.8284C19.9217 36.5786 20.9391 37 22 37H23.6133L22.0507 41.684C21.9669 41.9358 21.9865 42.2105 22.1053 42.4478C22.224 42.6851 22.4322 42.8655 22.684 42.9493C22.9358 43.0331 23.2105 43.0135 23.4478 42.8947C23.6851 42.7759 23.8655 42.5678 23.9493 42.316L24.388 41H35.612L36.052 42.316C36.143 42.5581 36.3243 42.7555 36.5578 42.8668C36.7913 42.978 37.0589 42.9945 37.3042 42.9127C37.5496 42.8309 37.7537 42.6572 37.8738 42.4281C37.9938 42.199 38.0204 41.9323 37.948 41.684L36.388 37H38C39.0609 37 40.0783 36.5786 40.8284 35.8284C41.5786 35.0783 42 34.0609 42 33V19H43C43.2652 19 43.5196 18.8946 43.7071 18.7071C43.8946 18.5196 44 18.2652 44 18C44 17.7348 43.8946 17.4804 43.7071 17.2929C43.5196 17.1054 43.2652 17 43 17H17ZM25.72 37H34.28L34.9467 39H25.0533L25.72 37ZM36.5 25.0067C36.6146 24.9415 36.7153 24.8543 36.7961 24.75C36.8769 24.6458 36.9363 24.5266 36.9708 24.3994C37.0054 24.2721 37.0144 24.1392 36.9974 24.0085C36.9804 23.8777 36.9377 23.7515 36.8718 23.6373C36.8058 23.5231 36.7179 23.4231 36.6132 23.343C36.5084 23.2629 36.3888 23.2043 36.2613 23.1706C36.1338 23.1369 36.0009 23.1287 35.8703 23.1466C35.7396 23.1644 35.6138 23.208 35.5 23.2747C33.6821 24.327 32.0738 25.7056 30.756 27.3413L28.7067 25.2933C28.5192 25.1061 28.265 25.0009 28 25.0009C27.735 25.0009 27.4808 25.1061 27.2933 25.2933L23.2933 29.2933C23.1951 29.3849 23.1163 29.4953 23.0616 29.6179C23.007 29.7406 22.9776 29.873 22.9752 30.0073C22.9728 30.1416 22.9975 30.2749 23.0478 30.3995C23.0981 30.524 23.173 30.6371 23.2679 30.732C23.3629 30.827 23.476 30.9019 23.6005 30.9522C23.7251 31.0025 23.8584 31.0272 23.9927 31.0248C24.127 31.0224 24.2594 30.993 24.3821 30.9384C24.5047 30.8837 24.6151 30.8049 24.7067 30.7067L28 27.4133L30.156 29.5707C30.2594 29.6741 30.3843 29.7536 30.5218 29.8035C30.6593 29.8534 30.8061 29.8726 30.9518 29.8596C31.0975 29.8467 31.2386 29.8019 31.3651 29.7285C31.4916 29.655 31.6005 29.5547 31.684 29.4347C32.946 27.6241 34.59 26.1125 36.5 25.0067Z" fill="#5E44FF"/>
</svg>
