<svg width="60" height="60" viewBox="0 0 60 60" fill="none" xmlns="http://www.w3.org/2000/svg">
<rect width="60" height="60" rx="16" fill="white" fill-opacity="0.6"/>
<path fill-rule="evenodd" clip-rule="evenodd" d="M26.42 24.112C30.26 19.1773 36.26 16 43 16C43.2652 16 43.5196 16.1054 43.7071 16.2929C43.8946 16.4804 44 16.7348 44 17C44 23.7413 40.8227 29.74 35.888 33.5813C36.0932 34.867 36.0171 36.1819 35.6648 37.4352C35.3125 38.6886 34.6925 39.8506 33.8475 40.8411C33.0026 41.8316 31.9528 42.6269 30.7706 43.1723C29.5884 43.7177 28.3019 44.0001 27 44C26.7348 44 26.4804 43.8946 26.2929 43.7071C26.1054 43.5196 26 43.2652 26 43V37.492C24.7039 36.4685 23.5323 35.2965 22.5093 34H17C16.7348 34 16.4804 33.8946 16.2929 33.7071C16.1054 33.5196 16 33.2652 16 33C15.9999 31.6979 16.2823 30.4114 16.8278 29.2291C17.3732 28.0467 18.1687 26.9969 19.1593 26.1519C20.15 25.3069 21.3122 24.6869 22.5657 24.3347C23.8192 23.9826 25.1342 23.9066 26.42 24.112ZM34 23C33.2044 23 32.4413 23.3161 31.8787 23.8787C31.3161 24.4413 31 25.2044 31 26C31 26.7956 31.3161 27.5587 31.8787 28.1213C32.4413 28.6839 33.2044 29 34 29C34.7957 29 35.5587 28.6839 36.1213 28.1213C36.6839 27.5587 37 26.7956 37 26C37 25.2044 36.6839 24.4413 36.1213 23.8787C35.5587 23.3161 34.7957 23 34 23Z" fill="#5E44FF"/>
<path d="M21.0134 36.9893C21.1187 36.9108 21.2075 36.8123 21.2748 36.6994C21.342 36.5866 21.3864 36.4616 21.4053 36.3316C21.4243 36.2016 21.4174 36.0691 21.3852 35.9418C21.3529 35.8144 21.2959 35.6946 21.2174 35.5893C21.1389 35.484 21.0403 35.3952 20.9275 35.3279C20.8146 35.2607 20.6896 35.2163 20.5596 35.1974C20.4296 35.1784 20.2972 35.1853 20.1698 35.2175C20.0425 35.2498 19.9227 35.3068 19.8174 35.3853C18.7946 36.1461 17.9993 37.1722 17.5175 38.3524C17.0357 39.5326 16.8858 40.8221 17.084 42.0813C17.1163 42.2911 17.2144 42.4851 17.3642 42.6354C17.514 42.7857 17.7077 42.8844 17.9174 42.9173C19.1768 43.1154 20.4663 42.9653 21.6465 42.4833C22.8268 42.0013 23.8527 41.2057 24.6134 40.1827C24.6944 40.0776 24.7538 39.9575 24.788 39.8293C24.8221 39.7011 24.8305 39.5674 24.8124 39.4359C24.7944 39.3045 24.7504 39.1779 24.683 39.0636C24.6156 38.9494 24.5261 38.8496 24.4198 38.7703C24.3135 38.6909 24.1924 38.6335 24.0636 38.6014C23.9349 38.5693 23.8011 38.5632 23.6699 38.5833C23.5388 38.6034 23.413 38.6495 23.2998 38.7187C23.1866 38.788 23.0883 38.8791 23.0107 38.9867C22.5457 39.612 21.9408 40.1198 21.2444 40.4694C20.5479 40.819 19.7793 41.0007 19 41C19 39.36 19.7894 37.9027 21.0134 36.9893Z" fill="#5E44FF"/>
</svg>
