<svg width="60" height="60" viewBox="0 0 60 60" fill="none" xmlns="http://www.w3.org/2000/svg">
<rect width="60" height="60" rx="16" fill="white" fill-opacity="0.6"/>
<path fill-rule="evenodd" clip-rule="evenodd" d="M30 17C22.82 17 17 22.82 17 30C17 37.18 22.82 43 30 43C37.18 43 43 37.18 43 30C43 22.82 37.18 17 30 17ZM26.5 25C25.78 25 25.396 25.5587 25.252 25.8453C25.0809 26.2059 24.9947 26.6009 25 27C25 27.3973 25.0787 27.8067 25.252 28.1547C25.396 28.4413 25.7787 29 26.5 29C27.22 29 27.604 28.4413 27.748 28.1547C27.9213 27.808 28 27.3973 28 27C28 26.6027 27.9213 26.1933 27.748 25.8453C27.604 25.5587 27.2213 25 26.5 25ZM32.252 25.8453C32.396 25.5587 32.7787 25 33.5 25C34.22 25 34.604 25.5587 34.748 25.8453C34.9213 26.192 35 26.6027 35 27C35 27.3973 34.9213 27.8067 34.748 28.1547C34.604 28.4413 34.2213 29 33.5 29C32.78 29 32.396 28.4413 32.252 28.1547C32.0809 27.7941 31.9947 27.3991 32 27C32 26.6027 32.0787 26.1933 32.252 25.8453ZM34.9493 34.9493C35.0476 34.8578 35.1264 34.7474 35.181 34.6247C35.2357 34.5021 35.2651 34.3696 35.2675 34.2354C35.2698 34.1011 35.2451 33.9677 35.1948 33.8432C35.1445 33.7187 35.0697 33.6056 34.9747 33.5106C34.8798 33.4157 34.7666 33.3408 34.6421 33.2905C34.5176 33.2402 34.3842 33.2155 34.25 33.2179C34.1157 33.2202 33.9833 33.2496 33.8606 33.3043C33.738 33.3589 33.6276 33.4378 33.536 33.536C33.0717 34.0004 32.5204 34.3688 31.9137 34.6202C31.307 34.8716 30.6567 35.0009 30 35.0009C29.3433 35.0009 28.693 34.8716 28.0863 34.6202C27.4796 34.3688 26.9283 34.0004 26.464 33.536C26.2744 33.3594 26.0237 33.2632 25.7646 33.2678C25.5056 33.2723 25.2584 33.3773 25.0752 33.5605C24.892 33.7437 24.787 33.9909 24.7824 34.25C24.7779 34.509 24.874 34.7598 25.0507 34.9493C26.3634 36.2618 28.1437 36.9992 30 36.9992C31.8563 36.9992 33.6366 36.2618 34.9493 34.9493Z" fill="#5E44FF"/>
</svg>
